<?xml version="1.0" encoding="UTF-8" standalone="no"?>
<!-- Created with Inkscape (http://www.inkscape.org/) -->

<svg
   xmlns:dc="http://purl.org/dc/elements/1.1/"
   xmlns:cc="http://creativecommons.org/ns#"
   xmlns:rdf="http://www.w3.org/1999/02/22-rdf-syntax-ns#"
   xmlns:svg="http://www.w3.org/2000/svg"
   xmlns="http://www.w3.org/2000/svg"
   xmlns:sodipodi="http://sodipodi.sourceforge.net/DTD/sodipodi-0.dtd"
   xmlns:inkscape="http://www.inkscape.org/namespaces/inkscape"
   width="75"
   height="75"
   viewBox="0 0 19.84375 19.843751"
   version="1.1"
   id="svg8"
   inkscape:version="0.92.4 (5da689c313, 2019-01-14)"
   sodipodi:docname="prof_out_climb.svg">
  <defs
     id="defs2" />
  <sodipodi:namedview
     id="base"
     pagecolor="#ffffff"
     bordercolor="#666666"
     borderopacity="1.0"
     inkscape:pageopacity="0.0"
     inkscape:pageshadow="2"
     inkscape:zoom="22.627417"
     inkscape:cx="28.269157"
     inkscape:cy="56.491201"
     inkscape:document-units="px"
     inkscape:current-layer="layer1"
     showgrid="true"
     units="px"
     showguides="false"
     inkscape:window-width="2717"
     inkscape:window-height="2122"
     inkscape:window-x="1107"
     inkscape:window-y="0"
     inkscape:window-maximized="0">
    <inkscape:grid
       type="xygrid"
       id="grid10" />
  </sodipodi:namedview>
  <metadata
     id="metadata5">
    <rdf:RDF>
      <cc:Work
         rdf:about="">
        <dc:format>image/svg+xml</dc:format>
        <dc:type
           rdf:resource="http://purl.org/dc/dcmitype/StillImage" />
        <dc:title />
      </cc:Work>
    </rdf:RDF>
  </metadata>
  <g
     inkscape:label="Layer 1"
     inkscape:groupmode="layer"
     id="layer1"
     transform="translate(0,-277.15623)">
    <rect
       id="rect14"
       width="11.90625"
       height="11.906258"
       x="3.96875"
       y="281.12497"
       style="stroke-width:0.26169172" />
    <rect
       id="rect16"
       width="11.377084"
       height="11.377095"
       x="4.2333331"
       y="281.38956"
       style="fill:#ffffff;stroke-width:0.26155958" />
    <circle
       style="fill:#000000;stroke-width:0.26458335"
       id="path18"
       cx="1.984375"
       cy="287.07809"
       r="1.984375" />
    <circle
       style="fill:#ffeeaa;stroke-width:0.26458335"
       id="path20"
       cx="1.984375"
       cy="287.07809"
       r="1.7197917" />
    <circle
       style="fill:#000000;stroke-width:0.26458335"
       id="path22"
       cx="9.921875"
       cy="279.14059"
       r="1.984375" />
    <circle
       style="fill:#ffcc00;stroke-width:0.26458335"
       id="path24"
       cx="9.921875"
       cy="279.14059"
       r="1.7197917" />
    <path
       style="fill:#ff0000;stroke-width:1"
       d="M 15 7 L 15 7.0019531 A 8.0000003 8.0000003 0 0 0 9.3085938 9.3789062 A 8.0000003 8.0000003 0 0 0 7.0058594 15 L 7 15 L 7 38 L 8 38 L 8 15.089844 L 8.0039062 15.085938 A 6.9999998 6.9999998 0 0 1 10.191406 9.9121094 A 6.9999998 6.9999998 0 0 1 14.994141 8.0078125 L 15.001953 8 L 38 8 L 38 7 L 15 7 z "
       transform="matrix(0.26458334,0,0,0.26458334,0,277.15623)"
       id="rect26" />
    <rect
       style="fill:#ff0000;fill-opacity:1;stroke:none;stroke-width:0.35448778"
       id="rect4552"
       width="2.8496485"
       height="0.26458335"
       x="7.9790168"
       y="274.98666"
       transform="matrix(0.928477,0.3713899,0,1,0,0)" />
    <rect
       style="fill:#ff0000;fill-opacity:1;stroke:none;stroke-width:0.35448804"
       id="rect4554"
       width="2.8496528"
       height="0.26458335"
       x="7.9790282"
       y="283.03"
       transform="matrix(0.92847569,-0.37139318,0,1,0,0)" />
    <circle
       style="fill:#ff0000;fill-opacity:1;stroke:none;stroke-width:0.26458335"
       id="path5123"
       cx="1.984375"
       cy="287.07809"
       r="0.39687502" />
    <circle
       style="fill:#ff0000;fill-opacity:1;stroke:none;stroke-width:0.26458335"
       id="path5125"
       cx="9.921875"
       cy="279.14059"
       r="0.39687502" />
  </g>
</svg>
